# xmcd
#
# Track frame offsets:
# 150
# 18240
# 34031
# 52643
# 72366
# 91957
# 104063
# 120979
# 137547
# 155250
# 172957
# 184743
#
# Disc length: 2730 seconds
#
#
# Revision: 0
# Processed by: cddbd v1.5.2PL0 Copyright (c) Steve Scherf et al.
# Submitted via: FreeRIP 2.944 
#
DISCID=8d0aa80c
DTITLE=John Fogerty - Blue moon swamp
DYEAR=1997
DGENRE=country
TTITLE0=Southern streamline
TTITLE1=Hot road heart
TTITLE2=Blueboy
TTITLE3=A hundred and ten in the shade
TTITLE4=Rattlesnake highway
TTITLE5=Bring it down to Jelly roall
TTITLE6=Walking in a hurricane
TTITLE7=Swamp river days
TTITLE8=Rambunctious boy
TTITLE9=Joy of my life
TTITLE10=Blue moon nights
TTITLE11=Bad bad boy
EXTD=
EXTT0=
EXTT1=
EXTT2=
EXTT3=
EXTT4=
EXTT5=
EXTT6=
EXTT7=
EXTT8=
EXTT9=
EXTT10=
EXTT11=
PLAYORDER=
